<?xml version="1.0" encoding="UTF-8" standalone="no"?>
<svg xmlns="http://www.w3.org/2000/svg" width="540" height="810">
  <path fill="#d00000" d="M0 .00001h540v810H0z"/>
  <path fill="#fff" d="M333.963 376.23827c-.0265-.65209-.28966-1.20773-.78959-1.66692-.50023-.45908-1.07926-.69889-1.73711-.71941-.64644.0205-1.17869.26033-1.59673.71941-.41834.45919-.63475 1.01483-.64922 1.66692.0203.65219.26013 1.20783.71941 1.66692.45899.45918 1.01463.69898 1.66692.7194.65199-.0204 1.20763-.26022 1.66691-.71941.45899-.45908.69879-1.01472.71941-1.66691zm-5.33414-5.47452c-.0206-.79246-.29551-1.45338-.82469-1.98276-.52946-.52925-1.19038-.80415-1.98275-.82468-.79266.0205-1.45358.29543-1.98276.82468-.52946.52939-.80436 1.1903-.82469 1.98276.0203.79258.29523 1.45349.82469 1.98276.52918.52937 1.1901.80427 1.98276.82468.79237-.0204 1.45329-.2953 1.98275-.82468.52918-.52926.80407-1.19018.82469-1.98276zm-7.01861-5.0534c-.0265-.79245-.32475-1.45337-.89487-1.98276-.5704-.52925-1.25472-.80414-2.05295-.82468-.79265.0205-1.45357.29543-1.98276.82469-.52945.52938-.80434 1.1903-.82468 1.98275.0262.85985.32448 1.56171.89487 2.10558.57013.54401 1.25444.82475 2.05295.84224.79238-.0175 1.4533-.29823 1.98275-.84224.52919-.54388.80408-1.24574.82469-2.10558zm-7.29935-4.91303c-.0352-.8714-.38616-1.62005-1.0528-2.24595-.66689-.62576-1.43894-.95329-2.31614-.98261-.93301.0293-1.69921.35686-2.2986.98261-.59963.6259-.90961 1.37455-.92996 2.24595.0262.93881.35958 1.7284 1.00015 2.36878.64033.64052 1.42992.9739 2.36878 1.00016.93277-.0263 1.69896-.35964 2.2986-1.00016.59937-.64038.90936-1.42997.92997-2.36878zm-8.14159-4.21116c-.0206-1.07319-.36568-1.94467-1.03525-2.61444-.66981-.66961-1.54129-1.01469-2.61443-1.03524-1.07338.0205-1.94486.36563-2.61444 1.03525-.6698.66976-1.01488 1.54124-1.03524 2.61443.0262 1.07333.39469 1.94481 1.10544 2.61443.71051.66976 1.60539 1.01484 2.68461 1.03525 1.0673-.0204 1.91538-.36549 2.54425-1.03525.62863-.66962.95031-1.5411.96506-2.61443zm-9.68568-3.93042c-.0323-1.07904-.42416-1.97391-1.17562-2.68462-.75169-.71056-1.66996-1.07903-2.75481-1.10543-1.07337.0264-1.94484.39488-2.61443 1.10543-.6698.71071-1.01488 1.60559-1.03524 2.68462.0262 1.07919.39469 1.97406 1.10543 2.68461.71053.71071 1.6054 1.07919 2.68462 1.10544 1.079-.0263 1.97387-.39473 2.68461-1.10543.71052-.71056 1.079-1.60543 1.10544-2.68462zm-10.52792-2.94782c-.0323-1.08488-.42414-2.00315-1.17562-2.75481-.75167-.75149-1.66994-1.14336-2.7548-1.17561-1.14647.0323-2.08228.42412-2.80745 1.17562-.72535.75165-1.09967 1.66992-1.12297 2.7548.0379 1.08504.45319 2.0033 1.2458 2.7548.79242.75166 1.73409 1.14353 2.82499 1.17562 1.07902-.0321 1.97389-.42396 2.68462-1.17562.71053-.75149 1.07901-1.66976 1.10543-2.7548zm40.98868 28.91667c-7.41646-5.69086-14.97316-10.45182-22.67011-14.28287-7.69719-3.83092-16.93835-7.11797-27.72351-9.86114-.971 2.62035-1.977 5.80212-3.018 9.54531-1.04118 3.74332-1.76644 7.06546-2.17577 9.96642-.0995.33636-.0761.54107.0702.61413.14613.0732.59064.10241 1.33353.0877.70178-.0233 1.12289-.25729 1.26335-.70186.30405-2.15231.88894-4.7258 1.75465-7.72047.86554-2.99454 1.87154-5.7084 3.01801-8.14159 8.44562 2.15537 16.6106 5.10903 24.49495 8.861 7.88411 3.75209 15.34722 8.42531 22.38936 14.01967l2.38633 1.68447c.14023.14042.42097-.14033.84223-.84224.0759-.1374.16947-.28362.28075-.43866.11098-.15495.20457-.33626.28074-.54394zM269.11105 327.108l2.66707-9.1242h-10.66829l2.94782 9.1242-6.87824-1.82484.42112 8.70307 7.43972-2.66707v5.0534c-2.08519.3364-3.81059 1.27807-5.17622 2.82499-1.36578 1.54711-2.07349 3.3661-2.12313 5.45697.0584 2.50631.92404 4.54756 2.59688 6.12374 1.67269 1.57633 3.80167 2.38932 6.38694 2.43897 2.38332-.0613 4.38947-.88603 6.01846-2.47407 1.62881-1.58787 2.47689-3.57063 2.54424-5.94827-.0527-2.10549-.75459-3.96542-2.10558-5.57979-1.35117-1.61419-3.03563-2.5617-5.0534-2.84254v-5.0534l7.5801 2.66707.14037-8.70307zm.9826 31.303c-.0323-.95037-.38903-1.78675-1.07034-2.50916-.68147-.72225-1.49446-1.10243-2.43896-1.14052-1.07335.0206-1.94483.36563-2.61444 1.03524-.66977.66977-1.01485 1.54125-1.03524 2.61444.0321 1.07333.38887 1.9448 1.07034 2.61443.68131.66976 1.4943 1.01484 2.43896 1.03524 1.07318-.0204 1.94466-.36548 2.61443-1.03524.66961-.66962 1.01469-1.5411 1.03525-2.61443zm-15.72168-9.1242c-.0322-1.08487-.42411-2.00314-1.17562-2.7548-.75165-.7515-1.66991-1.14337-2.75481-1.17562-1.14643.0323-2.08225.42413-2.80744 1.17562-.72532.75166-1.09965 1.66993-1.12298 2.7548.038 1.08504.45323 2.00331 1.24581 2.75481.79245.75165 1.73411 1.14352 2.82499 1.17562 1.07904-.0321 1.97391-.42397 2.68461-1.17562.71057-.7515 1.07904-1.66977 1.10544-2.75481zm15.16019 17.12541c-.0322-.85971-.35394-1.56157-.96505-2.10558-.61129-.54388-1.319-.82462-2.12314-.84223-.80429.0176-1.512.29836-2.12313.84223-.61128.54401-.93296 1.24587-.96505 2.10558.0379.85985.38302 1.56171 1.03524 2.10559.65207.544 1.38317.82474 2.19332.84223.79828-.0175 1.48259-.29823 2.05294-.84223.57017-.54389.86847-1.24575.89487-2.10559zm-.42111 6.73787c-.0323-.65209-.31885-1.20773-.85979-1.66692-.5411-.45908-1.14353-.69888-1.80729-.71941-.65807.0205-1.23711.26033-1.7371.71941-.50016.45919-.76336 1.01483-.7896 1.66692.0321.78087.31869 1.395.85979 1.84238.54093.44749 1.14336.6756 1.80729.68432.65791-.009 1.23694-.23682 1.7371-.68432.49999-.44738.76319-1.06151.7896-1.84238zm-25.12663-21.05583c-.0322-1.07904-.4241-1.97391-1.17562-2.68462-.75163-.71055-1.6699-1.07903-2.7548-1.10543-1.07332.0264-1.94479.39488-2.61443 1.10543-.66975.71072-1.01483 1.60559-1.03525 2.68462.0263 1.07919.39475 1.97406 1.10544 2.68462.71058.7107 1.60545 1.07918 2.68461 1.10543 1.07906-.0263 1.97393-.39472 2.68462-1.10543.71057-.71056 1.07905-1.60543 1.10543-2.68462zm-10.1068 3.93042c-.0205-1.07319-.3656-1.94467-1.03524-2.61444-.66974-.66961-1.54122-1.01469-2.61443-1.03524-1.07331.0205-1.94479.36563-2.61444 1.03525-.66973.66976-1.01481 1.54124-1.03524 2.61443.0263 1.07333.39475 1.94481 1.10543 2.61443.71059.66976 1.60546 1.01484 2.68462 1.03525 1.06737-.0204 1.91545-.36549 2.54424-1.03525.62871-.66962.95039-1.5411.96506-2.61443zm27.51296 17.96764c-.39488-2.91266-1.07919-6.2465-2.05295-10.00152-.97391-3.75489-1.97406-6.87817-3.00045-9.36984-10.4461 2.53846-19.52349 5.60325-27.23221 9.19437-7.70881 3.59126-14.96137 8.05977-21.75769 13.40555-.39775.31882-.90075.76918-1.509 1.35109-.6083.58201-1.04112 1.06746-1.29845 1.45636-.0293.27494.13451.67266.4913 1.19316.35676.52059.6609.77794.91243.77205.36845-.23976.82466-.60239 1.36862-1.08789.54392-.4854 1.07032-.91822 1.57919-1.29844 6.00088-4.79307 13.01949-9.10366 21.05583-12.93179 8.03626-3.828 16.03747-6.62959 24.00365-8.40479 1.12583 2.4098 2.10259 5.10026 2.93027 8.0714.82754 2.97128 1.48846 5.66174 1.98276 8.07141.0759.0732.23972.1375.4913.19301.25142.0556.55556.0849.91242.0877.48537-.003.81291-.0672.9826-.19301.16954-.12569.21633-.29531.14038-.50885zm-36.07566-13.75647c-.0351-.87141-.38607-1.62006-1.05279-2.24596-.66681-.62575-1.43886-.95329-2.31614-.98261-.93293.0293-1.69913.35686-2.2986.98261-.59954.6259-.90953 1.37455-.92996 2.24596.0263.9388.35967 1.72839 1.00015 2.36878.64041.64051 1.43001.9739 2.36878 1.00015.93285-.0262 1.69905-.35964 2.29859-1.00016.59947-.64038.90946-1.42997.92997-2.36877zm120.43935 25.26699c-1.49746-.6287-3.20533-1.16095-5.12359-1.59674-1.91857-.43569-3.90718-.79247-5.96582-1.07033.19871.93001.36248 2.01789.4913 3.26365.12853 1.24585.2923 2.54429.49131 3.89533l.42112 4.63228c-.0236.81888-.2575 1.00604-.70186.56149-1.19332-1.06445-2.35139-2.19913-3.47422-3.40403-1.12312-1.20482-2.211-2.40968-3.26365-3.61458-.78389 2.63495-1.60273 5.6471-2.45652 9.03646-.85407 3.38944-1.6729 6.50687-2.45651 9.3523 1.66971-.889 3.31323-1.63765 4.93058-2.24595 1.61706-.60826 3.29567-1.21654 5.03585-1.82484-1.24596 5.30784-3.0357 9.25581-5.36924 11.8439-2.33383 2.58813-5.73785 3.9743-10.21208 4.15853-.63765.0702-1.29272.0702-1.96521 0-.67275-.0702-1.32782-.21055-1.96521-.42112-3.07369-.6843-5.55944-1.80728-7.45727-3.36893-1.89807-1.56162-2.87483-4.08832-2.93027-7.5801-.006-1.81311.46194-3.59116 1.40372-5.33414.94154-1.74293 2.39206-2.67874 4.35154-2.80745 3.25183.0234 4.8895 1.66111 4.91303 4.91303.006.83641-.11126 1.83071-.35094 2.98291-.23993 1.15224-.63765 2.07636-1.19316 2.77235 2.55874-.88023 4.81054-2.52376 6.75541-4.93058 1.94461-2.40677 2.96815-4.92762 3.07065-7.56255-.0791-2.52959-1.00906-4.66441-2.7899-6.40448-1.7811-1.73999-3.93933-2.64656-6.47467-2.71971-1.46818.0381-2.81342.41823-4.0357 1.14053-1.22253.72237-2.35721 1.55875-3.40402 2.50915 1.06144-1.75461 1.88612-3.57945 2.47405-5.47452.58768-1.89498.88598-3.86019.89488-5.89563-.0147-1.88328-.37153-3.62623-1.07034-5.22887-.69906-1.60252-1.65242-3.13492-2.86008-4.59718-2.21391 1.6816-3.9978 3.68775-5.35169 6.01846-1.35413 2.33081-2.05014 5.00373-2.08804 8.01876-.00011 1.56753.14026 3.2052.42112 4.91302-1.06461-1.19312-2.30456-2.31609-3.71987-3.36893-1.41553-1.05275-2.93622-1.61424-4.56209-1.68447-2.99764.0615-5.17926.99143-6.54486 2.7899-1.3658 1.79856-2.03842 4.09716-2.01785 6.89579.0145 1.41253.33621 2.76361.96506 4.05324.62865 1.2897 1.47674 2.46532 2.54425 3.52685.49412-1.14927 1.22523-2.32488 2.19331-3.52685.96788-1.20191 2.1552-1.85113 3.56195-1.94766 1.7019.0439 3.03544.62293 4.0006 1.7371.96495 1.11424 1.45625 2.50041 1.47391 4.15853-.1551 3.6497-1.59976 6.38696-4.33399 8.21177-2.73444 1.82486-5.82847 2.73728-9.28211 2.73726-4.03872-.0175-7.19124-1.1405-9.45758-3.36893-2.26651-2.22839-3.41873-5.45694-3.45666-9.68568v-2.5267c1.58495.74576 3.04716 1.43007 4.38663 2.05294 1.33929.62293 2.73132 1.34234 4.17607 2.15822l.42112-17.26578c-1.36287 1.06454-2.81339 2.09393-4.35154 3.08819-1.53833.99435-2.98885 1.88337-4.35154 2.66707-.14338.0644-.24281.041-.29829-.0702-.0557-.11109-.0498-.27486.0175-.4913.47659-1.50312 1.06733-3.33965 1.7722-5.50962.7047-2.16987 1.61126-4.4977 2.71971-6.98351h-16.28318c.91819 2.12903 1.78382 4.15273 2.59689 6.0711.81291 1.91846 1.53817 4.01235 2.17577 6.28165.14029.42116-.00008.56153-.42112.42112-1.44181-.75739-2.83969-1.55868-4.19362-2.40388-1.35408-.84511-2.85723-1.82187-4.50946-2.93026l.56149 17.1254c1.50308-.78079 3.05887-1.53529 4.66738-2.2635 1.60835-.72815 3.09396-1.37737 4.45682-1.94766.073.46794.13736.86566.193 1.19316.0555.32757.0847.72529.0877 1.19317-.19309 4.65278-1.91265 7.98076-5.15868 9.98397-3.24618 2.00324-6.86076 2.98-10.84375 2.93027-3.09117-.0234-6.10333-.95919-9.03646-2.80745-2.93325-1.84821-4.50659-4.46849-4.72002-7.86084.003-1.81604.48833-3.37768 1.45636-4.68492.96794-1.30719 2.4009-1.9915 4.2989-2.05294 1.91544.0527 3.41859.68434 4.50946 1.89502 1.09075 1.21074 1.64639 2.68465 1.66692 4.42172.0233.42115-.0234.70189-.14037.84224 3.53263-2.10555 5.31068-5.05337 5.33414-8.84345-.0615-2.3512-.88616-4.45678-2.47406-6.31675-1.58802-1.85989-3.57078-2.84249-5.94827-2.94782-1.69037.0527-3.25786.54399-4.70247 1.47391-1.44472.93001-2.73146 1.9828-3.86023 3.15838.29239-1.03521.54974-2.01781.77204-2.94782.22221-.92992.33918-1.91252.35093-2.94782-.003-2.99163-.6288-5.57097-1.87748-7.73801-1.24877-2.16694-3.10285-4.07951-5.56224-5.73772-1.08501 1.48274-2.00327 3.11457-2.75481 4.89548-.75162 1.78103-1.14349 3.65851-1.17561 5.63244-.0264 1.83658.13156 3.42747.47375 4.77265.34212 1.34528 1.02643 2.79579 2.05295 4.35154-1.0002-.76908-1.91262-1.33642-2.73726-1.70201-.82473-.36551-1.87752-.54683-3.15838-.54394-3.47717.0849-6.20857 1.24877-8.19423 3.49176-1.98571 2.24306-2.99755 5.05635-3.03554 8.43987-.0205 2.14655.47666 4.20535 1.49145 6.17638 1.01475 1.97109 2.66997 3.18764 4.96567 3.64968-.28078-1.14635-.42115-2.22254-.42112-3.22856-.0264-2.28102.4825-4.10586 1.52655-5.47452 1.04399-1.3686 2.78109-2.07046 5.21132-2.10558 1.98856.10239 3.55605.95047 4.70246 2.54424 1.14633 1.59384 1.73122 3.31925 1.75466 5.17623-.15796 3.82516-1.63187 6.80807-4.42173 8.94873-2.78993 2.14069-5.94831 3.22857-9.47512 3.26365-4.52995-.14036-8.10359-1.68445-10.72093-4.63228-2.61737-2.9478-4.47145-6.4571-5.56225-10.52792.25734.0234.86562.11701 1.82484.28075 1.45635.46501 2.75479.93876 3.89533 1.42126 1.14051.48256 2.22839 1.13178 3.26366 1.94767l-3.50931-17.6869c-.92121 1.2166-2.16701 2.50335-3.73741 3.86024-1.57043 1.35696-2.9917 2.22259-4.2638 2.59688-.16378.14041-.25737.00004-.28075-.42111.11112-.69305.696-2.46525 1.75465-5.3166 1.05863-2.85127 1.92426-5.14986 2.59689-6.89578-1.80146.30711-3.88364.74577-6.24657 1.31598-2.36293.57031-4.30475 1.11425-5.82544 1.63183l3.22856 9.40494c-.90073 1.81317-1.20487 3.6614-.91242 5.5447.29244 1.88335 1.11127 3.45084 2.45651 4.70247.21641.27784.48545.52934.80715.7545.32167.2252.66091.44161 1.01769.64922l4.21117 13.47573c-.041 1.28968-.20472 3.27244-.49131 5.94827-.2866 2.67585-.45037 4.62351-.4913 5.843-.003.22225.003.4796.0175.77204.0146.29244.0556.54979.12283.77205.11696.56149.58487 1.26335 1.40372 2.10559l3.64968 2.94781c1.06447.8627 2.12896 1.76927 3.19347 2.71971 1.06446.95043 2.05876 1.8219 2.9829 2.61444 8.01581-3.88949 17.42658-6.67354 28.23236-8.35215 10.80567-1.67863 20.81303-2.49746 30.02211-2.45651 9.26739-.0614 18.94722.72818 29.0395 2.36878 10.09205 1.64059 19.73678 4.50067 28.93421 8.58025l8.00122-9.96643c.70171-.81884.98246-1.84823.84223-3.08819-.22825-1.29259-.54409-2.88347-.94751-4.77265-.40372-1.88917-.78974-3.48006-1.15807-4.77266l6.036-14.17759c.7602-.3743 1.34508-.81881 1.75466-1.33354.40926-.51467.7134-.95918.91242-1.33353.52039-.78957.91811-1.84236 1.19316-3.15838.27474-1.31595.25134-2.78986-.0702-4.42172.28352-.76032.55841-1.48557.82469-2.17577.26597-.69013.50577-1.41538.71941-2.17577.49114-1.22237.94735-2.46232 1.36863-3.71986.42096-1.25746.80698-2.35704 1.15807-3.29875zm-128.58094-20.35397c-.0263-.79245-.32464-1.45337-.89487-1.98276-.5703-.52925-1.25461-.80414-2.05294-.82468-.79255.0205-1.45347.29543-1.98276.82469-.52935.52938-.80424 1.1903-.82469 1.98275.0263.85985.32459 1.56171.89487 2.10559.57024.544 1.25455.82474 2.05295.84223.79248-.0175 1.4534-.29823 1.98275-.84223.52929-.54388.80419-1.24574.82469-2.10559zm-6.87824 5.0534c-.0263-.79246-.32463-1.45338-.89487-1.98276-.57029-.52925-1.2546-.80415-2.05294-.82468-.78669.0205-1.42422.29543-1.91258.82469-.48839.52938-.73989 1.1903-.75449 1.98275.0205.79258.29534 1.4535.82468 1.98276.5293.52938 1.19022.80427 1.98276.82469.79249-.0204 1.45341-.29531 1.98276-.82469.52929-.52926.80419-1.19018.82468-1.98276zm-5.89563 5.47452c-.0263-.65209-.28954-1.20773-.78959-1.66692-.5001-.45908-1.07913-.69888-1.73711-.71941-.64631.0205-1.17856.26033-1.59673.71941-.41821.45919-.63462 1.01483-.64922 1.66692.0204.6522.26026 1.20784.71941 1.66692.45911.45918 1.01475.69899 1.66691.71941.65213-.0204 1.20777-.26023 1.66692-.71942.45912-.45908.69892-1.01472.71941-1.66691zm116.36856 70.60721c-.00014-.70187-.702-1.26336-2.10559-1.68446-7.58022-2.98585-16.07273-5.12067-25.47755-6.40449-9.40504-1.28382-18.03792-1.90965-25.89867-1.87747-8.37269-.041-17.35065.60243-26.93392 1.93012-9.58337 1.32768-18.38587 3.58533-26.40752 6.77295-.95924.42111-1.42714.84222-1.40372 1.26335.0234.56148.53807.98259 1.54409 1.26335 9.25283 3.09694 18.4355 5.22007 27.54805 6.36939 9.11243 1.14927 18.64603 1.69322 28.60083 1.63183 8.88138.0702 17.22766-.42114 25.03889-1.47391 7.81101-1.05281 15.70109-3.08821 23.67027-6.10619 1.23982-.42113 1.84809-.98262 1.82484-1.68447zm18.95024-47.16505c-.0148.89782-.30137 1.97986-.85978 3.2461-.55872 1.2663-1.30152 1.96231-2.2284 2.08804-.47684-.0321-.78683-.24855-.92997-.64922-.14345-.40062-.20779-.7925-.19301-1.17562.0145-.89777.30106-1.97981.85978-3.24611.55841-1.26624 1.30121-1.96225 2.22841-2.08803.47652.0322.78651.24861.92996.64922.14314.40068.20748.79255.19301 1.17562zm-67.23828-55.5874c-1.52079.86572-2.9713 1.24005-4.35154 1.12298v-2.66707c-.009-.77781-.0264-1.43288-.0526-1.96521-.0264-.53215-.009-.90648.0526-1.12298 1.13752.48262 2.09088 1.09675 2.86008 1.84239.76904.74581 1.26619 1.67578 1.49146 2.78989zm-7.29936 1.12298c-1.94189.0235-3.53277-.30405-4.77265-.9826.70178-2.50322 2.24588-4.0941 4.63228-4.77266zm6.45713 3.36893c-.53819.78675-1.28684 1.42428-2.24596 1.91257-.95929.48846-1.84831.73996-2.66707.75451-.8277.003-1.76936-.21341-2.825-.64923-1.05579-.43566-1.89217-1.10827-2.50914-2.01785.78659-.48244 1.63467-.81583 2.54424-1.00015.90942-.18415 1.79259-.27189 2.64953-.2632 2.1055.00009 3.78996.4212 5.0534 1.26335zm59.65818 83.24072c-.0645.52347-.4622 1.23118-1.19316 2.12313-.73126.89194-1.40972 1.77512-2.0354 2.64952l-2.66707-5.75526 4.35154-4.35153c.37125.83638.71633 1.79559 1.03524 2.87762.31861 1.08204.48823 1.90088.50885 2.45652zm-12.21238-6.31675c-.0148.79252-.26626 1.45344-.7545 1.98276-.48851.52932-1.12604.80422-1.91257.82468-.79265-.0205-1.45357-.29536-1.98276-.82468-.52945-.52932-.80434-1.19024-.82469-1.98276-.0235-1.80144.8655-2.69046 2.66708-2.66707.79238.0146 1.4533.26613 1.98275.7545.52919.48838.80408 1.12591.82469 1.91257zm-2.24596 7.5801c-.0206.79251-.29549 1.45343-.82468 1.98276-.52945.52931-1.19037.80421-1.98276.82468-.7985-.0205-1.48281-.29537-2.05295-.82468-.57039-.52933-.86867-1.19024-.89487-1.98276.0204-.79252.29524-1.45344.82469-1.98276.5292-.52932 1.19011-.80421 1.98276-.82468.79823.0205 1.48255.29536 2.05294.82468.57013.52932.86842 1.19024.89487 1.98276zm-10.66828-7.15898c-.34813 1.80729-1.44186 3.21101-3.2812 4.21116-1.83958 1.00016-4.0212 1.2809-6.54486.84224-2.50633-.5381-4.47739-1.5324-5.91318-2.98292-1.43599-1.4505-2.03842-3.07648-1.80729-4.87793.3479-1.91841 1.44164-3.34553 3.2812-4.28135 1.83935-.9358 4.02097-1.23994 6.54486-.91242 2.50611.52641 4.47717 1.50901 5.91317 2.94782 1.43577 1.43882 2.0382 3.12329 1.8073 5.0534zm-37.19864-31.86449c-.0205.65218-.26035 1.20782-.71941 1.66692-.45922.45917-1.01485.69897-1.66691.7194-.65223-.0204-1.20787-.26024-1.66692-.71941-.45922-.4591-.69902-1.01473-.71941-1.66691.0145-.65211.23095-1.20775.64922-1.66692.41812-.4591.95036-.6989 1.59673-.71941.78074.0205 1.39487.26031 1.84239.71941.44735.45917.67546 1.01481.68431 1.66692zm14.03722 25.54774c-.0147.79253-.26622 1.45344-.7545 1.98275-.48847.52933-1.126.80423-1.91257.82469-.79261-.0205-1.45353-.29536-1.98276-.82468-.52941-.52931-.8043-1.19023-.82468-1.98276-.0235-1.80143.86553-2.69046 2.66707-2.66707.79242.0146 1.45334.26613 1.98276.7545.52922.48839.80412 1.12591.82468 1.91257zm-.84223 7.86084c-.0176.85979-.29839 1.56165-.84223 2.10558-.54404.54395-1.2459.82469-2.10559.84224-.79261-.0176-1.45353-.29829-1.98275-.84224-.52941-.54394-.80431-1.2458-.82469-2.10558.0116-.79251.26895-1.45343.77205-1.98276.5029-.52931 1.18137-.80421 2.03539-.82468.79828.0205 1.48259.29537 2.05295.82468.57016.52933.86845 1.19025.89487 1.98276zm-13.19499-2.94782c-.50015.87149-.97391 1.62014-1.42127 2.24596-.44752.62583-.81599.95336-1.10543.98261-.28959-.0292-.65807-.35678-1.10543-.98261-.44751-.62582-.92127-1.37447-1.42127-2.24596l-1.82483-3.22856 1.68446-3.08818c.5-.81006.97375-1.54116 1.42127-2.19332.44736-.65213.81583-.99721 1.10543-1.03524.22802.038.57895.38311 1.05279 1.03524.47368.65216.96498 1.38326 1.47391 2.19332l1.96521 3.08818zm-14.03722-4.91302c-.0147.79253-.26619 1.45344-.7545 1.98275-.48844.52933-1.12597.80423-1.91257.82469-.79258-.0205-1.4535-.29536-1.98276-.82468-.52938-.52931-.80428-1.19023-.82468-1.98276-.0235-1.80143.86556-2.69046 2.66707-2.66707.79245.0146 1.45337.26613 1.98276.7545.52925.48839.80414 1.12591.82468 1.91257zm.98261 8.00121c-.0205.85979-.29544 1.56165-.82469 2.10559-.52939.54394-1.1903.82468-1.98275.84223-.79844-.0175-1.48275-.29829-2.05295-.84223-.57033-.54395-.86862-1.24581-.89487-2.10559.0204-.79251.2953-1.45343.82469-1.98276.52925-.52931 1.19017-.8042 1.98275-.82468.7983.0205 1.48261.29537 2.05294.82469.57019.52932.86849 1.19024.89488 1.98275zm-12.77387-4.63228c.29238 1.93012-.29251 3.61459-1.75466 5.0534-1.46226 1.43882-3.45086 2.42142-5.96581 2.94782-2.51798.32753-4.6762.0234-6.47467-.91243-1.79856-.93581-2.8689-2.36292-3.21101-4.28135-.23107-1.81898.37136-3.48005 1.80729-4.98321 1.43585-1.50314 3.4069-2.46235 5.91318-2.87763 2.51787-.43865 4.67609-.15791 6.47466.84223 1.79847 1.00017 2.8688 2.40389 3.21102 4.21117zm-46.74394-20.35397c.0146.38898-.0497.80424-.19302 1.2458-.14331.44162-.45329.68142-.92996.71941-.92705-.11402-1.66985-.76324-2.22841-1.94766-.55857-1.18436-.84517-2.21961-.85978-3.10574-.0205-.40061.0205-.86267.12283-1.38617.10235-.52344.38894-.81003.85978-.85978.87146.12578 1.62012.8218 2.24595 2.08804.62581 1.2663.95335 2.34833.98261 3.2461zm20.77508 23.30179c.0234 1.80144-.86566 2.69046-2.66707 2.66707-.79255-.0146-1.45347-.26612-1.98276-.7545-.52934-.48838-.80424-1.1259-.82468-1.91257.0146-.79252.26609-1.45344.7545-1.98276.48834-.52931 1.12587-.80421 1.91257-.82469.79248.0205 1.4534.29538 1.98275.82469.52929.52933.80419 1.19025.82469 1.98276zm2.80745 7.43972c-.0205.79252-.29541 1.45344-.82469 1.98276-.52935.52932-1.19027.80421-1.98276.82469-.7984-.0205-1.48271-.29537-2.05294-.82469-.5703-.52932-.86859-1.19024-.89487-1.98276.0204-.79252.29533-1.45344.82468-1.98275.52929-.52932 1.19021-.80422 1.98276-.82469.79833.0205 1.48264.29537 2.05294.82469.57023.52932.86852 1.19024.89488 1.98275zm-14.31797.28075c-.00002 1.80144-.14039 3.11157-.42112 3.93042-1.00309-.813-2.05003-1.67863-3.14083-2.59689-1.09082-.91827-1.68155-1.64352-1.77219-2.17577.003-.29244.0672-1.04109.19301-2.24595.12573-1.20486.29535-2.37463.50885-3.50931l4.63228 3.79005z" font-family="Keep Calm" font-size="140.37400818" font-weight="400" letter-spacing="0" style="line-height:125%;-inkscape-font-specification:Keep Calm" transform="matrix(1.01228 0 0 .98787 -.00000286 -254.244216)" word-spacing="0"/>
  <path fill="#fff" d="m174.33744714 273.609764 34.65556-37.72752h-17.66377l-31.3916 34.27156v-34.27156h-14.87981v76.79902h14.87981v-33.98357l30.7196 33.98357h19.39175zm93.03273 26.11166h-36.09554v-21.11973h35.61554v-11.99984h-35.61554v-18.33576h36.09554v-12.28785h-50.68735v76.70302h50.68735zm62.25 0h-36.09554v-21.11973h35.61554v-11.99984h-35.61554v-18.33576h36.09554v-12.28785h-50.68735v76.70302h50.68735zm65.32196-38.01551c-.19206-7.45584-2.76002-13.56776-7.7039-18.33576-4.94399-4.76787-11.1119-7.23183-18.50376-7.39191h-27.55165v76.70302h14.87981v-25.05568h12.67184c7.39186-.16197 13.55977-2.64594 18.50376-7.45191 4.94388-4.8059 7.51184-10.96181 7.7039-18.46776zm-14.78381-.192c-.094 4.056-1.46603 7.48795-4.11595 10.29587-2.65 2.808-6.01396 4.27198-10.09187 4.39195h-9.88787v-28.99163h9.88787c4.07791.10406 7.44187 1.50405 10.09187 4.19995 2.64992 2.69602 4.0219 6.06397 4.11595 10.10386zm-198.96238 144.92667c-2.44603 3.55398-5.47399 6.38194-9.08388 8.48389-3.61001 2.10199-7.81395 3.17798-12.61184 3.22796-7.34594-.20398-13.48586-2.74794-18.41976-7.6319-4.93396-4.88391-7.49792-10.88383-7.6919-17.99977.19398-7.20386 2.75794-13.24377 7.6919-18.11976 4.9339-4.87588 11.07382-7.41185 18.41976-7.6079 4.50789.0401 8.61984 1.06405 12.33584 3.07196 3.71589 2.00803 6.77185 4.75999 9.16789 8.25589l10.27186-10.55986c-3.69402-4.48388-8.25796-8.06783-13.69182-10.75187-5.43399-2.68388-11.46191-4.05987-18.08377-4.12794-11.66588.26807-21.35775 4.12402-29.07562 11.56785-7.71791 7.44396-11.72186 16.86783-12.01185 28.27163.28999 11.36189 4.29394 20.77375 12.01185 28.23564 7.71787 7.46191 17.40974 11.32985 29.07562 11.60385 6.60986-.054 12.63778-1.43398 18.08377-4.13995 5.44586-2.70596 10.10579-6.41391 13.97982-11.12385zm59.28024-52.31932h-11.61585l-36.28753 76.79901h16.31979l7.19991-15.3598h37.24752l7.10391 15.3598h16.31979zm-18.71975 49.05537 12.95983-27.64765 12.76783 27.64765zm114.59662 13.34383h-36.76753v-62.3032h-15.16781v76.70301h51.93534zm85.23418-62.3992h-16.22379l-22.27172 38.11151-21.31172-38.11151h-16.79979v76.79901h14.59182v-51.64734l23.2317 41.18347 24.19169-40.79947v51.26334h14.59181z" font-family="Keep Calm" font-size="96" font-weight="400" letter-spacing="0" style="text-align:center;line-height:125%;-inkscape-font-specification:Keep Calm" text-anchor="middle" word-spacing="0"/>
  <path fill="#fff" d="M234.37980714 472.360244h-5.80793l-18.14377 38.39951h8.1599l3.59995-7.6799h18.62376l3.55196 7.6799h8.15989zm-9.35988 24.52769 6.47991-13.82383 6.38392 13.82383zm63.25023-24.52769h-7.29591v25.05568l-16.27179-25.05568h-8.35189v38.39951h7.29591v-26.92766l17.32777 26.92766h7.29591zm41.30172 19.19975c-.094-5.4199-1.79001-9.93984-5.08793-13.55982-3.29799-3.61992-7.63393-5.49989-13.00784-5.63993h-16.03179v38.39951h16.03179c5.37391-.14 9.70985-2.01998 13.00784-5.63993 3.29792-3.61995 4.99389-8.13988 5.08793-13.55983zm-7.5359-.19199c-.084 3.58897-1.30801 6.63492-3.67196 9.13788-2.36399 2.50297-5.36395 3.80896-8.99988 3.91795h-6.47992v-26.20766h6.47992c3.63593.13703 6.63589 1.50701 8.99988 4.10994 2.36395 2.603 3.58793 5.61695 3.67196 9.04189z" font-family="Keep Calm" font-size="48" font-weight="400" letter-spacing="0" style="text-align:center;line-height:125%;-inkscape-font-specification:Keep Calm" text-anchor="middle" word-spacing="0"/>
  <path fill="#fff" d="M147.94765714 604.519084c-2.44603 3.55397-5.47399 6.38193-9.08388 8.48388-3.61001 2.10199-7.81395 3.17798-12.61184 3.22797-7.34594-.20399-13.48586-2.74795-18.41976-7.63191-4.93396-4.88391-7.49793-10.88383-7.6919-17.99976.19398-7.20387 2.75794-13.24378 7.6919-18.11977 4.9339-4.87588 11.07382-7.41184 18.41976-7.6079 4.50789.0401 8.61983 1.06405 12.33584 3.07196 3.71589 2.00803 6.77185 4.75999 9.16788 8.25589l10.27187-10.55986c-3.69402-4.48388-8.25796-8.06783-13.69182-10.75186-5.43399-2.68389-11.46191-4.05987-18.08377-4.12795-11.66588.26807-21.35775 4.12402-29.075625 11.56785-7.71791 7.44396-11.721854 16.86783-12.011844 28.27164.289992 11.36188 4.293936 20.77375 12.011846 28.23563 7.717873 7.46191 17.409743 11.32985 29.075623 11.60385 6.60986-.054 12.63778-1.43398 18.08377-4.13995 5.44586-2.70596 10.10579-6.4139 13.97982-11.12385zm59.28024-52.31933h-11.61585l-36.28753 76.79901h16.31979l7.19991-15.3598h37.24752l7.10391 15.3598h16.31979zm-18.71976 49.05537 12.95984-27.64765 12.76783 27.64765zm120.45255 27.74364c-.70406-1.13598-1.36005-2.46397-1.96798-3.98395-.60805-1.51997-1.26404-3.32795-1.96797-5.42393-1.11804-3.33994-2.07403-6.16391-2.86796-8.47189-.79405-2.30795-1.63004-4.50792-2.50797-6.59991-.89204-2.35995-2.10803-4.38392-3.64795-6.07193-1.54003-1.68794-3.52401-2.99193-5.95193-3.91195 4.2959-1.50994 7.75185-4.1299 10.36787-7.85989 2.6159-3.72991 3.95989-7.86185 4.03195-12.39584-.13406-6.42186-2.31403-11.67379-6.53992-15.7558-4.226-4.08188-9.69392-6.18985-16.40379-6.32392l-30.33561.096v76.70301h14.68781v-30.52761h5.56793c4.53991.064 8.01186 1.28002 10.41587 3.64796 2.40392 2.36799 4.1479 5.50395 5.23193 9.40788l5.47193 17.47177zm-19.48775-53.66331c-.086 3.638-1.33003 6.48996-3.73195 8.55589-2.40201 2.06602-5.44597 3.118-9.13188 3.15596h-10.75187v-23.90369h10.75187c3.68591.0641 6.72987 1.20805 9.13188 3.43196 2.40192 2.22403 3.6459 5.14399 3.73195 8.75988zm86.42525 53.66331c-.70406-1.13598-1.36005-2.46397-1.96798-3.98395-.60805-1.51997-1.26404-3.32795-1.96797-5.42393-1.11804-3.33994-2.07403-6.16391-2.86796-8.47189-.79405-2.30795-1.63004-4.50792-2.50797-6.59991-.89204-2.35995-2.10803-4.38392-3.64795-6.07193-1.54003-1.68794-3.52401-2.99193-5.95193-3.91195 4.2959-1.50994 7.75185-4.1299 10.36787-7.85989 2.6159-3.72991 3.95989-7.86185 4.03195-12.39584-.13406-6.42186-2.31403-11.67379-6.53992-15.7558-4.226-4.08188-9.69392-6.18985-16.40379-6.32392l-30.33561.096v76.70301h14.68781v-30.52761h5.56793c4.53991.064 8.01186 1.28002 10.41587 3.64796 2.40392 2.36799 4.1479 5.50395 5.23193 9.40788l5.47193 17.47177zm-19.48775-53.66331c-.086 3.638-1.33003 6.48996-3.73195 8.55589-2.40201 2.06602-5.44597 3.118-9.13188 3.15596h-10.75187v-23.90369h10.75187c3.68591.0641 6.72987 1.20805 9.13188 3.43196 2.40192 2.22403 3.6459 5.14399 3.73195 8.75988zm80.47333-23.0397-20.83174 32.25558-19.96774-32.25558h-17.27978l29.66362 45.11942v31.67959h15.07181v-31.48759l31.2956-45.31142zm-163.83415 157.98252c-.30408-11.4038-4.30402-20.82767-11.99984-28.27164-7.69597-7.44383-17.26384-11.29977-28.70363-11.56785-11.48589.26208-21.08175 4.10603-28.78763 11.53186-7.70591 7.42596-11.70986 16.86183-12.01185 28.30763.30199 11.36188 4.30594 20.77375 12.01185 28.23564 7.70588 7.46187 17.30174 11.32987 28.78763 11.60387 11.43979-.28 21.00766-4.16 28.70363-11.63987 7.69582-7.47989 11.69576-16.87976 11.99984-28.19964zm-14.9758 0c-.18407 7.16194-2.69604 13.18986-7.53591 18.08377-4.84 4.89395-10.90391 7.44191-18.19176 7.6439-7.33395-.20198-13.42586-2.74995-18.27577-7.6439-4.84996-4.89391-7.36592-10.92183-7.5479-18.08377.18198-7.20386 2.69795-13.24378 7.5479-18.11977 4.84991-4.87587 10.94183-7.41184 18.27577-7.6079 7.28785.19606 13.35177 2.73203 18.19176 7.6079 4.83987 4.87599 7.35184 10.91591 7.53591 18.11977zm90.37949-38.3995h-14.59181v50.11135l-32.54358-50.11135h-16.70378v76.79901h14.59181v-53.85531l34.65555 53.85531h14.59181z" font-family="Keep Calm" font-size="96" font-weight="400" letter-spacing="0" style="text-align:center;line-height:125%;-inkscape-font-specification:Keep Calm" text-anchor="middle" word-spacing="0"/>
</svg>